%
M48
M72
T01C0.0315
T02C0.0320
T03C0.0400
T04C0.0787
T05C0.1181
%
T01
X6066Y5908
X8113Y8349
T02
X5408Y11064
X6408Y11564
X5408Y12064
X6408Y12564
X2195Y9312
X1195Y8812
X2195Y8312
X1195Y7812
X2195Y7312
X1195Y6812
X2195Y6312
X1195Y5812
T03
X8136Y11814
X9136Y11814
X10136Y11814
X14254Y4388
X14254Y3388
X14254Y2388
T04
X17782Y1254
X12168Y7798
X17782Y10467
X12168Y12719
X3900Y12719
X3900Y7798
T05
X1380Y1341
X1380Y12286
X20199Y12286
X20199Y1341
M30
